<svg version="1.1" id="Layer_1" xmlns="http://www.w3.org/2000/svg" xmlns:xlink="http://www.w3.org/1999/xlink" x="0px" y="0px"
	 width="100%" viewBox="0 0 128 128" enable-background="new 0 0 128 128" xml:space="preserve">
<path fill="#476F4C" opacity="1.000000" stroke="none" 
	d="
M129.000000,41.000000 
	C129.000000,70.666664 129.000000,99.833321 129.000000,129.000000 
	C86.333344,129.000000 43.666683,129.000000 1.000019,129.000000 
	C1.000013,86.333344 1.000013,43.666695 1.000006,1.000031 
	C43.666645,1.000021 86.333290,1.000021 128.999969,1.000010 
	C129.000000,14.166667 129.000000,27.333334 129.000000,41.000000 
M15.918730,21.971327 
	C15.918730,21.971327 16.015160,21.985407 15.836474,22.593185 
	C15.611091,23.405241 15.385708,24.217297 14.816093,25.659327 
	C13.920378,27.843973 13.024662,30.028622 11.382883,32.427341 
	C10.929455,34.084797 10.090849,35.740105 10.081587,37.400036 
	C9.977546,56.046856 9.973213,74.694489 10.040978,93.341545 
	C10.046655,94.903488 10.768057,96.462837 11.514902,97.992287 
	C11.514902,97.992287 11.872007,98.032082 12.026949,98.752472 
	C12.660765,100.200615 13.214954,101.690216 13.943274,103.089157 
	C16.161163,107.349213 17.705746,112.188194 23.084005,114.567604 
	C23.746281,115.037506 24.408554,115.507401 25.662420,116.166779 
	C27.843712,116.580048 30.025002,116.993317 32.430988,117.824303 
	C32.430260,118.172440 32.282169,118.438538 32.627831,119.179962 
	C33.893604,119.444328 35.158634,119.934891 36.425259,119.939041 
	C54.634380,119.998711 72.843758,120.008850 91.052933,119.968613 
	C92.329071,119.965797 93.604126,119.474037 95.402054,118.973495 
	C95.906158,118.712296 96.410263,118.451088 97.664482,118.027702 
	C107.581459,114.119354 115.540787,108.307289 118.178192,96.559273 
	C118.471634,96.038597 118.765083,95.517921 119.495148,94.298424 
	C119.657913,93.320229 119.960793,92.342293 119.962608,91.363800 
	C119.994507,74.218964 120.007484,57.074005 119.956390,39.929276 
	C119.952583,38.652409 119.432213,37.377083 118.814644,35.627666 
	C118.535423,35.360592 118.256203,35.093517 117.993858,34.108669 
	C117.609650,32.745136 117.225441,31.381599 116.587654,29.381748 
	C115.972618,28.415213 115.074005,27.524923 114.790184,26.469334 
	C113.328819,21.034075 109.864731,17.408379 104.832520,15.230092 
	C102.037796,14.020347 99.120865,13.092912 95.687248,11.751066 
	C95.123108,11.452650 94.558975,11.154233 93.276550,10.444468 
	C92.462082,10.302663 91.647812,10.038351 90.833122,10.037092 
	C73.527779,10.010343 56.222336,9.994945 38.917126,10.047507 
	C37.639793,10.051388 36.364082,10.586326 34.501625,11.144560 
	C33.651413,11.729081 32.801205,12.313602 31.240376,13.140124 
	C25.820602,14.598579 20.352076,15.983290 17.428442,22.104836 
	C17.274193,22.175493 17.119946,22.246149 16.467697,22.195320 
	C16.308031,22.134510 16.148363,22.073702 15.918730,21.971327 
z"/>
<path fill="#0E0E0E" opacity="1.000000" stroke="none" 
	d="
M117.984756,97.131805 
	C115.540787,108.307289 107.581459,114.119354 96.824051,118.057732 
	C79.528435,118.052696 63.072994,118.057823 46.618195,117.957535 
	C41.813286,117.928253 37.010208,117.598587 32.206291,117.406601 
	C30.025002,116.993317 27.843712,116.580048 25.335897,115.716301 
	C24.318499,114.831520 23.627623,114.397217 22.936745,113.962921 
	C17.705746,112.188194 16.161163,107.349213 13.943274,103.089157 
	C13.214954,101.690216 12.660765,100.200615 12.095407,97.936089 
	C12.161800,89.415131 12.159734,81.710564 12.460876,74.156067 
	C17.088348,81.934273 17.085806,81.928673 25.198561,78.243073 
	C25.626917,78.048470 26.158615,78.081345 26.720028,78.446381 
	C27.483644,82.148979 28.169436,85.413536 29.104877,88.860573 
	C30.118996,89.730576 30.883465,90.418098 31.799885,91.337219 
	C32.283230,91.712051 32.614632,91.855286 33.171219,92.373795 
	C54.224567,92.799118 75.052727,92.849174 96.216278,92.940399 
	C97.107170,92.358505 97.662689,91.735428 98.491547,91.130280 
	C99.572647,89.906822 100.380402,88.665436 101.219025,87.305954 
	C101.249893,87.187859 101.026268,87.098694 101.420143,87.056320 
	C102.086769,86.092110 102.359512,85.170273 102.632263,84.248444 
	C102.098923,84.291405 101.565575,84.334373 101.445602,84.352982 
	C102.335762,81.544800 102.812561,78.760956 103.579895,76.132660 
	C108.109062,82.186424 110.258614,82.499863 115.228523,77.997078 
	C115.705307,77.565102 116.361969,77.331680 117.004028,77.469772 
	C117.093849,79.892342 117.044998,81.854965 117.149788,83.809357 
	C117.388023,88.252327 117.701729,92.691238 117.984756,97.131805 
z"/>
<path fill="#2A2A2A" opacity="1.000000" stroke="none" 
	d="
M16.965698,22.316805 
	C17.119946,22.246149 17.274193,22.175493 18.018135,21.968613 
	C22.423439,19.723948 26.228010,17.595152 30.059895,15.516720 
	C31.675282,14.640527 33.348282,13.870559 35.451931,12.935369 
	C55.607151,12.892467 75.305534,12.966500 95.145088,13.356768 
	C102.042099,16.175663 107.847870,19.966333 111.988068,26.402088 
	C111.947037,31.368494 108.635765,30.992788 105.618805,30.993753 
	C78.349335,31.002485 51.079197,30.902634 23.811028,31.091070 
	C19.089937,31.123695 17.407637,29.426638 17.837215,24.799576 
	C17.484346,24.381847 17.253510,24.172817 16.997253,23.710186 
	C16.985310,23.059521 16.975504,22.688164 16.965698,22.316805 
z"/>
<path fill="#A2A2A2" opacity="1.000000" stroke="none" 
	d="
M95.003922,13.040534 
	C75.305534,12.966500 55.607151,12.892467 35.072327,12.904239 
	C33.474255,12.959404 32.712624,12.928764 31.950994,12.898124 
	C32.801205,12.313602 33.651413,11.729081 35.256729,11.039929 
	C55.339504,10.908805 74.667168,10.882311 93.994835,10.855817 
	C94.558975,11.154233 95.123108,11.452650 95.833649,12.136702 
	C95.654671,12.695069 95.329300,12.867802 95.003922,13.040534 
z"/>
<path fill="#777777" opacity="1.000000" stroke="none" 
	d="
M118.081474,96.845535 
	C117.701729,92.691238 117.388023,88.252327 117.149788,83.809357 
	C117.044998,81.854965 117.093849,79.892342 117.082474,77.016815 
	C117.045097,72.735435 116.998199,69.370697 117.026070,65.549881 
	C117.050507,61.397636 117.000175,57.701458 117.019104,53.571640 
	C117.046410,51.093155 117.004448,49.048313 117.026428,46.546780 
	C117.094879,42.407761 117.099388,38.725430 117.322906,34.991936 
	C117.541924,34.940773 117.976982,34.826443 117.976982,34.826439 
	C118.256203,35.093517 118.535423,35.360592 118.954094,36.325294 
	C119.081871,56.347691 119.070198,75.672462 119.058533,94.997238 
	C118.765083,95.517921 118.471634,96.038597 118.081474,96.845535 
z"/>
<path fill="#232323" opacity="1.000000" stroke="none" 
	d="
M95.145088,13.356768 
	C95.329300,12.867802 95.654671,12.695069 96.119537,12.280287 
	C99.120865,13.092912 102.037796,14.020347 104.832520,15.230092 
	C109.864731,17.408379 113.328819,21.034075 114.790184,26.469334 
	C115.074005,27.524923 115.972618,28.415213 116.407181,29.695107 
	C115.816200,30.004885 115.405708,30.001305 114.794617,29.752924 
	C113.728920,28.338947 112.863808,27.169769 111.998703,26.000591 
	C107.847870,19.966333 102.042099,16.175663 95.145088,13.356768 
z"/>
<path fill="#333333" opacity="1.000000" stroke="none" 
	d="
M11.156935,98.023392 
	C10.768057,96.462837 10.046655,94.903488 10.040978,93.341545 
	C9.973213,74.694489 9.977546,56.046856 10.081587,37.400036 
	C10.090849,35.740105 10.929455,34.084797 11.716423,32.545227 
	C12.049964,32.663116 11.945536,33.108101 11.577963,33.322098 
	C11.192573,55.031864 11.174754,76.527626 11.156935,98.023392 
z"/>
<path fill="#B8B8B8" opacity="1.000000" stroke="none" 
	d="
M32.318642,117.615448 
	C37.010208,117.598587 41.813286,117.928253 46.618195,117.957535 
	C63.072994,118.057823 79.528435,118.052696 96.448997,118.138824 
	C96.410263,118.451088 95.906158,118.712296 94.683746,119.023048 
	C85.532204,119.056259 77.098640,119.080315 68.665794,119.013969 
	C56.439167,118.917778 44.213051,118.756256 31.986719,118.622604 
	C32.282169,118.438538 32.430260,118.172440 32.318642,117.615448 
z"/>
<path fill="#B8B8B8" opacity="1.000000" stroke="none" 
	d="
M11.335918,98.007843 
	C11.174754,76.527626 11.192573,55.031864 11.611279,33.741592 
	C12.065104,35.628662 12.118043,37.310234 12.104336,39.325653 
	C12.083117,40.108772 12.128544,40.558052 12.108131,41.466118 
	C12.073642,45.951824 12.104991,49.978737 12.069923,54.459545 
	C12.048985,58.278004 12.094462,61.642563 12.072288,65.452896 
	C12.055645,68.601105 12.106656,71.303551 12.157666,74.005989 
	C12.159734,81.710564 12.161800,89.415131 12.017937,97.575897 
	C11.872007,98.032082 11.514902,97.992287 11.335918,98.007843 
z"/>
<path fill="#262626" opacity="1.000000" stroke="none" 
	d="
M32.307274,118.901276 
	C44.213051,118.756256 56.439167,118.917778 68.665794,119.013969 
	C77.098640,119.080315 85.532204,119.056259 94.422562,119.141121 
	C93.604126,119.474037 92.329071,119.965797 91.052933,119.968613 
	C72.843758,120.008850 54.634380,119.998711 36.425259,119.939041 
	C35.158634,119.934891 33.893604,119.444328 32.307274,118.901276 
z"/>
<path fill="#333333" opacity="1.000000" stroke="none" 
	d="
M93.635696,10.650143 
	C74.667168,10.882311 55.339504,10.908805 35.549728,10.904838 
	C36.364082,10.586326 37.639793,10.051388 38.917126,10.047507 
	C56.222336,9.994945 73.527779,10.010343 90.833122,10.037092 
	C91.647812,10.038351 92.462082,10.302663 93.635696,10.650143 
z"/>
<path fill="#333333" opacity="1.000000" stroke="none" 
	d="
M119.276840,94.647827 
	C119.070198,75.672462 119.081871,56.347691 119.122757,36.561981 
	C119.432213,37.377083 119.952583,38.652409 119.956390,39.929276 
	C120.007484,57.074005 119.994507,74.218964 119.962608,91.363800 
	C119.960793,92.342293 119.657913,93.320229 119.276840,94.647827 
z"/>
<path fill="#232323" opacity="1.000000" stroke="none" 
	d="
M31.595684,13.019124 
	C32.712624,12.928764 33.474255,12.959404 34.615486,13.021175 
	C33.348282,13.870559 31.675282,14.640527 30.059895,15.516720 
	C26.228010,17.595152 22.423439,19.723948 18.260736,21.891733 
	C20.352076,15.983290 25.820602,14.598579 31.595684,13.019124 
z"/>
<path fill="#1E1E1E" opacity="1.000000" stroke="none" 
	d="
M12.170982,38.991810 
	C12.118043,37.310234 12.065104,35.628662 11.978850,33.527596 
	C11.945536,33.108101 12.049964,32.663116 12.089455,32.438194 
	C13.024662,30.028622 13.920378,27.843973 15.293274,25.337950 
	C16.178553,25.012236 16.586651,25.007896 16.846630,25.335831 
	C15.798830,29.112150 14.899148,32.556198 13.974020,36.320168 
	C13.356043,37.423996 12.763513,38.207901 12.170982,38.991810 
z"/>
<path fill="#1E1E1E" opacity="1.000000" stroke="none" 
	d="
M114.995209,29.997725 
	C115.405708,30.001305 115.816200,30.004885 116.533966,30.013266 
	C117.225441,31.381599 117.609650,32.745136 117.985420,34.467556 
	C117.976982,34.826443 117.541924,34.940773 117.042274,34.981495 
	C116.355537,35.015388 116.168449,35.008560 115.912994,34.643505 
	C115.561493,32.856091 115.278351,31.426907 114.995209,29.997725 
z"/>
<path fill="#262626" opacity="1.000000" stroke="none" 
	d="
M16.994747,25.003557 
	C16.586651,25.007896 16.178553,25.012236 15.465389,25.022963 
	C15.385708,24.217297 15.611091,23.405241 15.921848,22.298929 
	C16.007221,22.004673 15.988696,22.012896 15.988696,22.012896 
	C16.148363,22.073702 16.308031,22.134510 16.716698,22.256062 
	C16.975504,22.688164 16.985310,23.059521 16.999380,23.961887 
	C17.003736,24.660616 17.003828,24.828333 17.002029,24.997953 
	C17.000143,24.999855 16.994747,25.003557 16.994747,25.003557 
z"/>
<path fill="#939393" opacity="1.000000" stroke="none" 
	d="
M23.010376,114.265259 
	C23.627623,114.397217 24.318499,114.831520 25.040100,115.621567 
	C24.408554,115.507401 23.746281,115.037506 23.010376,114.265259 
z"/>
<path fill="#232323" opacity="1.000000" stroke="none" 
	d="
M16.011190,21.995041 
	C16.015160,21.985407 15.918730,21.971327 15.953712,21.992111 
	C15.988696,22.012896 16.007221,22.004673 16.011190,21.995041 
z"/>
<path fill="#486D4C" opacity="1.000000" stroke="none" 
	d="
M101.188156,87.424042 
	C100.380402,88.665436 99.572647,89.906822 98.116554,91.053802 
	C87.825974,90.974892 78.183723,90.985283 68.541504,91.007187 
	C56.243641,91.035133 43.945793,91.072380 31.647936,91.105621 
	C30.883465,90.418098 30.118996,89.730576 29.016762,88.647079 
	C28.631229,87.922615 28.720190,87.636688 28.952076,86.895950 
	C28.973763,74.210350 29.020611,62.021973 28.966358,49.834049 
	C28.959318,48.252186 28.430683,46.672649 28.155769,44.837700 
	C28.095768,44.009182 28.023653,43.435001 28.137756,42.582211 
	C29.859209,41.474747 31.394438,40.645885 33.401871,39.873356 
	C54.271183,39.894798 74.668297,39.859917 95.345734,39.808998 
	C99.036163,37.976967 99.669159,41.016098 100.985703,43.141132 
	C100.978142,43.611149 100.971230,43.799076 100.754837,44.343548 
	C100.431641,58.191448 100.301949,71.682739 100.247025,85.174339 
	C100.243973,85.922951 100.860184,86.674088 101.188156,87.424042 
M88.005234,54.033283 
	C88.005234,54.033283 88.096695,54.136471 87.450165,53.984570 
	C87.229378,54.000755 87.008598,54.016945 86.389946,54.560394 
	C85.650459,55.811375 85.088486,57.219868 84.141663,58.286865 
	C79.272873,63.773651 79.490173,64.611656 85.238487,70.056038 
	C87.221680,71.934364 88.250008,74.820869 89.600716,77.744476 
	C91.091698,79.556198 92.582687,81.367928 94.297791,83.554741 
	C94.501602,83.774841 94.748199,83.924370 94.981346,84.021843 
	C94.981346,84.021843 94.975273,83.962952 95.514229,84.257103 
	C96.006500,82.869820 96.908821,81.487434 96.925484,80.094460 
	C97.046867,69.942139 97.034897,59.787292 96.943314,49.634342 
	C96.928932,48.040131 96.298103,46.451481 95.493973,44.728474 
	C94.643150,46.166882 93.792328,47.605289 92.379402,49.285885 
	C91.578339,50.195267 90.777275,51.104649 89.430023,52.119171 
	C89.322044,52.449047 89.214066,52.778919 89.009544,53.005627 
	C89.009544,53.005627 89.118050,53.096344 88.533623,53.121449 
	C88.392120,53.455151 88.250610,53.788853 88.005234,54.033283 
M35.932880,83.712975 
	C36.230923,83.395454 36.528965,83.077934 36.868183,81.994896 
	C37.183018,80.968536 37.241547,79.743988 37.856030,78.949333 
	C40.891357,75.024017 44.205101,71.310234 47.166695,67.332748 
	C50.015591,63.506618 49.129967,60.797504 44.361095,57.874374 
	C44.361095,57.874374 44.576218,57.810059 44.576218,57.810059 
	C44.576218,57.810059 44.461853,58.027264 43.788815,57.919834 
	C43.220425,57.546772 42.652039,57.173706 41.963215,56.095772 
	C40.275703,53.685982 38.588188,51.276188 36.911739,48.219063 
	C36.252968,47.428032 35.594196,46.637005 34.353836,45.665741 
	C33.908199,46.751106 33.140938,47.818241 33.078178,48.925308 
	C32.901108,52.048923 33.011387,55.188931 33.011829,58.322479 
	C33.012947,66.238815 32.973049,74.155632 33.062279,82.070992 
	C33.076408,83.324577 32.215649,86.554298 35.499165,83.995125 
	C35.499165,83.995125 35.365925,84.045471 35.932880,83.712975 
M41.636185,86.601120 
	C56.823776,86.693344 72.011337,86.794930 87.199074,86.842400 
	C87.784973,86.844223 88.372498,86.325737 88.922966,85.411247 
	C88.310501,84.631058 87.698044,83.850861 86.790756,82.446472 
	C82.971085,78.170143 79.151413,73.893822 75.279625,69.559151 
	C72.109001,72.222221 69.076630,75.143318 65.625740,77.433891 
	C64.623589,78.099068 61.866070,77.518051 60.883778,76.536758 
	C58.509064,74.164467 56.706562,71.219376 55.027668,68.978142 
	C52.033424,72.220795 49.049820,75.140709 46.460751,78.376335 
	C44.984680,80.221016 44.152390,82.580833 42.435425,84.926514 
	C41.969612,85.292419 41.503803,85.658318 41.636185,86.601120 
M43.460354,47.363548 
	C43.914280,47.570595 44.368206,47.777641 45.539429,48.116478 
	C46.098572,48.446957 46.811817,48.653145 47.193687,49.126602 
	C52.696877,55.949780 58.155502,62.808891 64.345284,70.561775 
	C71.610161,62.321064 78.732155,54.242432 86.387733,46.031490 
	C86.567711,45.997272 86.747688,45.963051 87.317078,45.397045 
	C86.411316,44.608688 85.512260,43.142902 84.598778,43.133850 
	C71.448875,43.003590 58.297005,43.060139 45.145752,43.110199 
	C44.333401,43.113289 43.455418,43.292694 42.722172,43.634819 
	C39.614552,45.084812 40.922848,46.117294 43.460354,47.363548 
z"/>
<path fill="#131313" opacity="1.000000" stroke="none" 
	d="
M116.951294,66.005951 
	C116.998199,69.370697 117.045097,72.735435 117.013565,76.553131 
	C116.361969,77.331680 115.705307,77.565102 115.228523,77.997078 
	C110.258614,82.499863 108.109062,82.186424 103.471916,75.799973 
	C103.141251,71.913330 103.209114,68.514908 103.489098,65.157410 
	C108.657860,70.273018 110.323532,70.374542 116.951294,66.005951 
z"/>
<path fill="#131313" opacity="1.000000" stroke="none" 
	d="
M12.460876,74.156067 
	C12.106656,71.303551 12.055645,68.601105 12.387847,65.575951 
	C16.076117,68.580490 19.503277,71.004608 24.061970,67.160439 
	C24.755772,66.575378 25.786348,66.389694 26.737255,66.473434 
	C26.756302,70.621162 26.699253,74.314743 26.642204,78.008331 
	C26.158615,78.081345 25.626917,78.048470 25.198561,78.243073 
	C17.085806,81.928673 17.088348,81.934273 12.460876,74.156067 
z"/>
<path fill="#595959" opacity="1.000000" stroke="none" 
	d="
M31.799885,91.337219 
	C43.945793,91.072380 56.243641,91.035133 68.541504,91.007187 
	C78.183723,90.985283 87.825974,90.974892 97.843201,91.035873 
	C97.662689,91.735428 97.107170,92.358505 95.921875,92.654922 
	C93.473145,92.228470 91.654320,92.044792 89.835205,92.041817 
	C70.872177,92.010719 51.909100,92.008644 32.946030,91.998520 
	C32.614632,91.855286 32.283230,91.712051 31.799885,91.337219 
z"/>
<path fill="#B8B8B8" opacity="1.000000" stroke="none" 
	d="
M33.171219,92.373795 
	C51.909100,92.008644 70.872177,92.010719 89.835205,92.041817 
	C91.654320,92.044792 93.473145,92.228470 95.586494,92.613739 
	C75.052727,92.849174 54.224567,92.799118 33.171219,92.373795 
z"/>
<path fill="#595959" opacity="1.000000" stroke="none" 
	d="
M103.276978,65.116493 
	C103.209114,68.514908 103.141251,71.913330 103.181366,75.644432 
	C102.812561,78.760956 102.335762,81.544800 101.457550,84.807831 
	C101.046173,85.890907 101.036224,86.494804 101.026268,87.098694 
	C101.026268,87.098694 101.249893,87.187859 101.219025,87.305954 
	C100.860184,86.674088 100.243973,85.922951 100.247025,85.174339 
	C100.301949,71.682739 100.431641,58.191448 100.854019,44.766205 
	C101.479752,47.288422 101.796829,49.744522 102.068405,52.190445 
	C102.022911,52.180271 101.907616,52.312519 101.970871,52.324043 
	C102.034126,52.335571 101.941383,52.510056 102.195877,53.031597 
	C102.725899,57.407589 103.001434,61.262043 103.276978,65.116493 
z"/>
<path fill="#A2A2A2" opacity="1.000000" stroke="none" 
	d="
M26.720028,78.446381 
	C26.699253,74.314743 26.756302,70.621162 26.822704,66.018394 
	C26.775867,61.411938 26.719675,57.714661 26.745003,53.578461 
	C26.775331,50.763206 26.724140,48.386875 26.761589,45.664066 
	C27.217331,44.498669 27.584433,43.679741 27.951536,42.860817 
	C28.023653,43.435001 28.095768,44.009182 28.104067,45.298210 
	C28.031717,58.079521 27.986113,70.146202 28.056252,82.212212 
	C28.066299,83.940910 28.635471,85.666359 28.945881,87.393311 
	C28.720190,87.636688 28.631229,87.922615 28.767113,88.464584 
	C28.169436,85.413536 27.483644,82.148979 26.720028,78.446381 
z"/>
<path fill="#828282" opacity="1.000000" stroke="none" 
	d="
M101.420143,87.056320 
	C101.036224,86.494804 101.046173,85.890907 101.044182,84.832176 
	C101.565575,84.334373 102.098923,84.291405 102.632263,84.248444 
	C102.359512,85.170273 102.086769,86.092110 101.420143,87.056320 
z"/>
<path fill="#262626" opacity="1.000000" stroke="none" 
	d="
M114.794617,29.752924 
	C115.278351,31.426907 115.561493,32.856091 115.578575,34.767826 
	C111.622559,38.941612 107.355957,38.149086 102.842560,37.217442 
	C100.300499,36.692719 97.542465,37.214287 94.422409,37.236595 
	C73.681763,37.228901 53.400448,37.249134 32.838863,37.040192 
	C30.972805,36.889694 29.305401,36.679543 27.816271,37.100311 
	C23.035427,38.451199 18.445673,38.384605 13.999466,36.000244 
	C14.899148,32.556198 15.798830,29.112150 16.846630,25.335831 
	C16.994747,25.003557 17.000143,24.999855 17.246656,24.994528 
	C17.493170,24.989201 17.982527,24.982567 17.982527,24.982567 
	C17.407637,29.426638 19.089937,31.123695 23.811028,31.091070 
	C51.079197,30.902634 78.349335,31.002485 105.618805,30.993753 
	C108.635765,30.992788 111.947037,31.368494 111.988068,26.402088 
	C112.863808,27.169769 113.728920,28.338947 114.794617,29.752924 
z"/>
<path fill="#1E1E1E" opacity="1.000000" stroke="none" 
	d="
M17.837215,24.799576 
	C17.982527,24.982567 17.493170,24.989201 17.248543,24.992626 
	C17.003828,24.828333 17.003736,24.660616 17.001518,24.241194 
	C17.253510,24.172817 17.484346,24.381847 17.837215,24.799576 
z"/>
<path fill="#191919" opacity="1.000000" stroke="none" 
	d="
M103.489098,65.157410 
	C103.001434,61.262043 102.725899,57.407589 102.161057,53.017475 
	C101.871750,52.481812 102.023125,52.308998 102.055939,52.203976 
	C102.088753,52.098953 102.182907,51.900055 102.264877,51.854515 
	C102.346855,51.808975 102.497452,51.920750 102.672234,52.244926 
	C108.699768,58.220646 109.180092,58.269558 116.949844,54.005283 
	C117.000175,57.701458 117.050507,61.397636 117.026062,65.549881 
	C110.323532,70.374542 108.657860,70.273018 103.489098,65.157410 
z"/>
<path fill="#232323" opacity="1.000000" stroke="none" 
	d="
M94.881729,37.264519 
	C97.542465,37.214287 100.300499,36.692719 102.842560,37.217442 
	C107.355957,38.149086 111.622559,38.941612 115.646942,35.126057 
	C116.168449,35.008560 116.355537,35.015388 116.823257,35.032661 
	C117.099388,38.725430 117.094879,42.407761 116.649567,46.572571 
	C111.827667,49.346252 107.485672,48.218967 103.088783,46.594849 
	C102.349960,45.142361 101.668167,44.000702 100.986366,42.859039 
	C99.669159,41.016098 99.036163,37.976967 95.331497,39.604832 
	C95.036926,39.416698 95.003410,39.007126 95.024704,38.715210 
	C94.991249,38.037033 94.936493,37.650776 94.881729,37.264519 
z"/>
<path fill="#1E1E1E" opacity="1.000000" stroke="none" 
	d="
M103.145805,46.905682 
	C107.485672,48.218967 111.827667,49.346252 116.585617,47.029259 
	C117.004448,49.048313 117.046410,51.093155 117.019112,53.571640 
	C109.180092,58.269558 108.699768,58.220646 102.659195,52.194847 
	C102.471382,51.820587 102.502205,51.727417 102.682549,51.271523 
	C102.957199,49.512314 103.051506,48.208996 103.145805,46.905682 
z"/>
<path fill="#191919" opacity="1.000000" stroke="none" 
	d="
M26.663485,54.017384 
	C26.719675,57.714661 26.775867,61.411938 26.746607,65.564255 
	C25.786348,66.389694 24.755772,66.575378 24.061970,67.160439 
	C19.503277,71.004608 16.076117,68.580490 12.455500,65.130180 
	C12.094462,61.642563 12.048985,58.278004 12.446247,54.492054 
	C17.490927,56.751453 22.079542,55.988766 26.663485,54.017384 
z"/>
<path fill="#232323" opacity="1.000000" stroke="none" 
	d="
M13.974019,36.320168 
	C18.445673,38.384605 23.035427,38.451199 27.816271,37.100311 
	C29.305401,36.679543 30.972805,36.889694 32.782501,37.336666 
	C32.995659,38.261059 32.984909,38.659798 32.961990,39.248100 
	C32.949821,39.437660 32.929668,39.817028 32.929668,39.817028 
	C31.394438,40.645885 29.859209,41.474747 28.137756,42.582211 
	C27.584433,43.679741 27.217331,44.498669 26.397575,45.699684 
	C17.552845,48.644867 17.556589,48.642475 13.001487,41.508274 
	C12.845862,41.264538 12.455121,41.170918 12.173970,41.007328 
	C12.128544,40.558052 12.083117,40.108772 12.104336,39.325653 
	C12.763513,38.207901 13.356043,37.423996 13.974019,36.320168 
z"/>
<path fill="#1E1E1E" opacity="1.000000" stroke="none" 
	d="
M12.108131,41.466118 
	C12.455121,41.170918 12.845862,41.264538 13.001487,41.508274 
	C17.556589,48.642475 17.552845,48.644867 26.308935,46.046158 
	C26.724140,48.386875 26.775331,50.763206 26.745003,53.578461 
	C22.079542,55.988766 17.490927,56.751453 12.512664,54.038158 
	C12.104991,49.978737 12.073642,45.951824 12.108131,41.466118 
z"/>
<path fill="#1E1E1E" opacity="1.000000" stroke="none" 
	d="
M85.854141,46.163803 
	C78.732155,54.242432 71.610161,62.321064 64.345284,70.561775 
	C58.155502,62.808891 52.696877,55.949780 47.193687,49.126602 
	C46.811817,48.653145 46.098572,48.446957 45.235931,47.617168 
	C46.564304,46.740322 48.192963,46.051968 49.828564,46.035069 
	C61.538635,45.914047 73.250122,45.929661 85.180511,45.980629 
	C85.399864,46.059387 85.854141,46.163803 85.854141,46.163803 
z"/>
<path fill="#1B1B1B" opacity="1.000000" stroke="none" 
	d="
M43.030212,84.708694 
	C44.152390,82.580833 44.984680,80.221016 46.460751,78.376335 
	C49.049820,75.140709 52.033424,72.220795 55.027668,68.978142 
	C56.706562,71.219376 58.509064,74.164467 60.883778,76.536758 
	C61.866070,77.518051 64.623589,78.099068 65.625740,77.433891 
	C69.076630,75.143318 72.109001,72.222221 75.279625,69.559151 
	C79.151413,73.893822 82.971085,78.170143 86.740639,83.107513 
	C85.462082,84.126007 84.234360,84.790802 83.005081,84.793709 
	C69.680267,84.825195 56.355206,84.752769 43.030212,84.708694 
z"/>
<path fill="#171717" opacity="1.000000" stroke="none" 
	d="
M89.714523,77.246841 
	C88.250008,74.820869 87.221680,71.934364 85.238487,70.056038 
	C79.490173,64.611656 79.272873,63.773651 84.141663,58.286865 
	C85.088486,57.219868 85.650459,55.811375 86.687363,54.594498 
	C87.355415,54.464561 87.726059,54.300518 88.096695,54.136475 
	C88.096695,54.136471 88.005234,54.033283 88.390411,54.147652 
	C88.889732,53.873463 89.003891,53.484901 89.118042,53.096344 
	C89.118050,53.096344 89.009544,53.005627 89.364700,53.085098 
	C89.805321,52.781055 89.890770,52.397541 89.976219,52.014030 
	C90.777275,51.104649 91.578339,50.195267 92.888580,49.522724 
	C93.397758,59.381744 93.397758,69.003922 93.397758,79.339828 
	C92.051414,78.574768 90.882965,77.910805 89.714523,77.246841 
z"/>
<path fill="#171717" opacity="1.000000" stroke="none" 
	d="
M42.083649,56.800644 
	C42.652039,57.173706 43.220425,57.546772 44.140507,57.980553 
	C44.492199,58.041275 44.521328,58.021984 44.521328,58.021984 
	C49.129967,60.797504 50.015591,63.506618 47.166695,67.332748 
	C44.205101,71.310234 40.891357,75.024017 37.856030,78.949333 
	C37.241547,79.743988 37.183018,80.968536 36.428978,82.672440 
	C35.742195,83.584373 35.494614,83.818756 35.173313,83.584419 
	C35.110077,75.078308 35.120564,67.040916 35.433273,59.135429 
	C37.540882,60.689377 39.346268,62.111431 41.151649,63.533482 
	C41.462315,61.289204 41.772980,59.044922 42.083649,56.800644 
z"/>
<path fill="#595959" opacity="1.000000" stroke="none" 
	d="
M43.107349,47.011932 
	C40.922848,46.117294 39.614552,45.084812 42.722172,43.634819 
	C43.455418,43.292694 44.333401,43.113289 45.145752,43.110199 
	C58.297005,43.060139 71.448875,43.003590 84.598778,43.133850 
	C85.512260,43.142902 86.411316,44.608688 87.071800,45.428444 
	C86.222168,45.292873 85.617805,45.125912 84.544945,44.924080 
	C72.014114,44.877480 59.950703,44.785755 47.890770,44.949863 
	C46.287239,44.971687 44.701385,46.292625 43.107349,47.011932 
z"/>
<path fill="#737373" opacity="1.000000" stroke="none" 
	d="
M89.657623,77.495659 
	C90.882965,77.910805 92.051414,78.574768 93.397758,79.339828 
	C93.397758,69.003922 93.397758,59.381744 93.169632,49.401630 
	C93.792328,47.605289 94.643150,46.166882 95.767975,45.280018 
	C96.055779,56.990734 96.112617,68.150215 96.033913,79.308731 
	C96.022949,80.862549 95.344643,82.411659 94.975266,83.962952 
	C94.975273,83.962952 94.981346,84.021843 94.917633,83.805054 
	C94.662422,83.321106 94.402344,83.184898 94.073669,83.179649 
	C92.582687,81.367928 91.091698,79.556198 89.657623,77.495659 
z"/>
<path fill="#1B1B1B" opacity="1.000000" stroke="none" 
	d="
M42.023430,56.448208 
	C41.772980,59.044922 41.462315,61.289204 41.151649,63.533482 
	C39.346268,62.111431 37.540882,60.689377 35.360462,58.738571 
	C35.036297,57.138634 35.087166,56.067451 35.448830,54.910759 
	C36.170727,52.888466 36.581829,50.951675 36.932888,49.000740 
	C36.872845,48.986591 36.900677,48.866398 36.900677,48.866398 
	C38.588188,51.276188 40.275703,53.685982 42.023430,56.448208 
z"/>
<path fill="#333333" opacity="1.000000" stroke="none" 
	d="
M33.401871,39.873356 
	C32.929668,39.817028 32.949821,39.437660 33.432266,39.265404 
	C54.277607,39.064476 74.640511,39.035801 95.003410,39.007126 
	C95.003410,39.007126 95.036926,39.416698 95.051163,39.620865 
	C74.668297,39.859917 54.271183,39.894798 33.401871,39.873356 
z"/>
<path fill="#A2A2A2" opacity="1.000000" stroke="none" 
	d="
M42.732819,84.817604 
	C56.355206,84.752769 69.680267,84.825195 83.005081,84.793709 
	C84.234360,84.790802 85.462082,84.126007 86.888046,83.419617 
	C87.698044,83.850861 88.310501,84.631058 88.476799,85.716492 
	C72.366417,86.022568 56.702206,86.023392 41.037994,86.024216 
	C41.503803,85.658318 41.969612,85.292419 42.732819,84.817604 
z"/>
<path fill="#171717" opacity="1.000000" stroke="none" 
	d="
M41.337090,86.312668 
	C56.702206,86.023392 72.366417,86.022568 88.494949,86.035721 
	C88.372498,86.325737 87.784973,86.844223 87.199074,86.842400 
	C72.011337,86.794930 56.823776,86.693344 41.337090,86.312668 
z"/>
<path fill="#939393" opacity="1.000000" stroke="none" 
	d="
M43.283852,47.187740 
	C44.701385,46.292625 46.287239,44.971687 47.890770,44.949863 
	C59.950703,44.785755 72.014114,44.877480 84.527344,45.159653 
	C84.978241,45.430096 84.961159,45.901867 84.961159,45.901867 
	C73.250122,45.929661 61.538635,45.914047 49.828564,46.035069 
	C48.192963,46.051968 46.564304,46.740322 44.877281,47.551277 
	C44.368206,47.777641 43.914280,47.570595 43.283852,47.187740 
z"/>
<path fill="#B8B8B8" opacity="1.000000" stroke="none" 
	d="
M35.138035,54.996265 
	C35.087166,56.067451 35.036297,57.138634 35.058235,58.606674 
	C35.120564,67.040916 35.110077,75.078308 35.203667,83.574295 
	C35.307747,84.032890 35.365925,84.045471 35.365925,84.045471 
	C35.365925,84.045471 35.499165,83.995125 35.042973,83.805450 
	C34.468731,71.249413 34.346985,58.883068 34.262165,46.516468 
	C34.260643,46.294521 34.701164,46.069538 34.935425,45.845974 
	C35.594196,46.637005 36.252968,47.428032 36.906208,48.542732 
	C36.900677,48.866398 36.872845,48.986591 36.519707,49.000153 
	C35.823723,51.007896 35.480877,53.002083 35.138035,54.996265 
z"/>
<path fill="#3C3C3C" opacity="1.000000" stroke="none" 
	d="
M34.644630,45.755859 
	C34.701164,46.069538 34.260643,46.294521 34.262165,46.516468 
	C34.346985,58.883068 34.468731,71.249413 35.017765,83.738846 
	C32.215649,86.554298 33.076408,83.324577 33.062279,82.070992 
	C32.973049,74.155632 33.012947,66.238815 33.011829,58.322479 
	C33.011387,55.188931 32.901108,52.048923 33.078178,48.925308 
	C33.140938,47.818241 33.908199,46.751106 34.644630,45.755859 
z"/>
<path fill="#2A2A2A" opacity="1.000000" stroke="none" 
	d="
M28.952076,86.895950 
	C28.635471,85.666359 28.066299,83.940910 28.056252,82.212212 
	C27.986113,70.146202 28.031717,58.079521 28.091953,45.552544 
	C28.430683,46.672649 28.959318,48.252186 28.966358,49.834049 
	C29.020611,62.021973 28.973763,74.210350 28.952076,86.895950 
z"/>
<path fill="#3C3C3C" opacity="1.000000" stroke="none" 
	d="
M95.244751,84.110031 
	C95.344643,82.411659 96.022949,80.862549 96.033913,79.308731 
	C96.112617,68.150215 96.055779,56.990734 95.997139,45.345913 
	C96.298103,46.451481 96.928932,48.040131 96.943314,49.634342 
	C97.034897,59.787292 97.046867,69.942139 96.925484,80.094460 
	C96.908821,81.487434 96.006500,82.869820 95.244751,84.110031 
z"/>
<path fill="#828282" opacity="1.000000" stroke="none" 
	d="
M103.088783,46.594849 
	C103.051506,48.208996 102.957199,49.512314 102.668625,51.353767 
	C102.474358,51.891907 102.282082,51.860268 102.277206,51.963722 
	C102.272339,52.067177 102.113907,52.200623 102.113907,52.200623 
	C101.796829,49.744522 101.479752,47.288422 101.063507,44.409660 
	C100.971230,43.799076 100.978142,43.611149 100.985703,43.141132 
	C101.668167,44.000702 102.349960,45.142361 103.088783,46.594849 
z"/>
<path fill="#737373" opacity="1.000000" stroke="none" 
	d="
M85.180511,45.980629 
	C84.961159,45.901867 84.978241,45.430096 84.995850,45.194523 
	C85.617805,45.125912 86.222168,45.292873 86.877098,45.694332 
	C86.747688,45.963051 86.567711,45.997272 86.120941,46.097649 
	C85.854141,46.163803 85.399864,46.059387 85.180511,45.980629 
z"/>
<path fill="#3C3C3C" opacity="1.000000" stroke="none" 
	d="
M94.185730,83.367195 
	C94.402344,83.184898 94.662422,83.321106 94.945755,83.795807 
	C94.748199,83.924370 94.501602,83.774841 94.185730,83.367195 
z"/>
<path fill="#3C3C3C" opacity="1.000000" stroke="none" 
	d="
M35.649403,83.879227 
	C35.365925,84.045471 35.307747,84.032890 35.277390,84.043015 
	C35.494614,83.818756 35.742195,83.584373 36.408386,83.055206 
	C36.528965,83.077934 36.230923,83.395454 35.649403,83.879227 
z"/>
<path fill="#939393" opacity="1.000000" stroke="none" 
	d="
M89.703125,52.066601 
	C89.890770,52.397541 89.805321,52.781055 89.412979,53.136681 
	C89.214066,52.778919 89.322044,52.449047 89.703125,52.066601 
z"/>
<path fill="#939393" opacity="1.000000" stroke="none" 
	d="
M87.773430,54.060524 
	C87.726059,54.300518 87.355415,54.464561 86.886292,54.330868 
	C87.008598,54.016945 87.229378,54.000755 87.773430,54.060524 
z"/>
<path fill="#939393" opacity="1.000000" stroke="none" 
	d="
M88.825836,53.108894 
	C89.003891,53.484901 88.889732,53.873463 88.442345,54.192291 
	C88.250610,53.788853 88.392120,53.455151 88.825836,53.108894 
z"/>
<path fill="#1B1B1B" opacity="1.000000" stroke="none" 
	d="
M44.441212,57.948181 
	C44.521328,58.021984 44.492199,58.041275 44.477028,58.034271 
	C44.461853,58.027264 44.576218,57.810059 44.576218,57.810059 
	C44.576218,57.810059 44.361095,57.874374 44.441212,57.948181 
z"/>
<path fill="#131313" opacity="1.000000" stroke="none" 
	d="
M102.023125,52.308998 
	C102.023125,52.308998 101.871750,52.481812 101.906570,52.495934 
	C101.941383,52.510056 102.034126,52.335571 101.999023,52.337841 
	C101.963913,52.340111 102.023125,52.308998 102.023125,52.308998 
z"/>
<path fill="#191919" opacity="1.000000" stroke="none" 
	d="
M102.055939,52.203976 
	C102.023125,52.308998 101.963913,52.340111 101.935760,52.326317 
	C101.907616,52.312519 102.022911,52.180271 102.068405,52.190445 
	C102.113907,52.200623 102.272339,52.067177 102.258232,51.958969 
	C102.244125,51.850765 102.182907,51.900055 102.182907,51.900055 
	C102.182907,51.900055 102.088753,52.098953 102.055939,52.203976 
z"/>
<path fill="#777777" opacity="1.000000" stroke="none" 
	d="
M95.024704,38.715210 
	C74.640511,39.035801 54.277607,39.064476 33.444435,39.075844 
	C32.984909,38.659798 32.995659,38.261059 33.062767,37.565842 
	C53.400448,37.249134 73.681763,37.228901 94.422409,37.236595 
	C94.936493,37.650776 94.991249,38.037033 95.024704,38.715210 
z"/>
<path fill="#131313" opacity="1.000000" stroke="none" 
	d="
M102.264877,51.854515 
	C102.182907,51.900055 102.244125,51.850765 102.263107,51.855515 
	C102.282082,51.860268 102.474358,51.891907 102.488281,51.809662 
	C102.502205,51.727417 102.471382,51.820587 102.484421,51.870667 
	C102.497452,51.920750 102.346855,51.808975 102.264877,51.854515 
z"/>
<path fill="#171717" opacity="1.000000" stroke="none" 
	d="
M35.448830,54.910759 
	C35.480877,53.002083 35.823723,51.007896 36.579750,49.014297 
	C36.581829,50.951675 36.170727,52.888466 35.448830,54.910759 
z"/>
</svg>